<?xml version="1.0" encoding="UTF-8" standalone="no"?>
<!-- Created with Inkscape (http://www.inkscape.org/) -->

<svg
   width="428.53662"
   height="403.71884"
   viewBox="0 0 428.53662 403.71884"
   version="1.1"
   id="svg1"
   xml:space="preserve"
   xmlns="http://www.w3.org/2000/svg"
   xmlns:svg="http://www.w3.org/2000/svg"><defs
     id="defs1" /><g
     id="layer4"
     style="display:inline"
     transform="translate(-24.685547,-57.611328)"><g
       id="layer2"
       style="display:inline"><path
         id="path1"
         style="fill:#c7bdb4;fill-rule:evenodd;stroke-width:0.950022"
         d="M 167.91016,57.611328 A 143.22577,143.536 0 0 0 24.685547,201.14844 143.22577,143.536 0 0 0 167.91016,344.68359 143.22577,143.536 0 0 0 311.13672,201.14844 143.22577,143.536 0 0 0 167.91016,57.611328 Z M 164.96289,170.0625 a 30,30 0 0 1 30,30 30,30 0 0 1 -30,30 30,30 0 0 1 -30,-30 30,30 0 0 1 30,-30 z" /></g><path
       id="path2"
       style="fill:#eedccc;fill-opacity:1;fill-rule:evenodd"
       d="m 190.44922,112.65234 c -8.34153,0.1982 -15.28924,7.91301 -21.73633,7.76758 -6.87691,-0.15512 -13.18357,-9.2543 -23.88672,-6.7207 -10.70316,2.53359 -25.80129,16.69977 -39.96875,36.76172 -14.167462,20.06195 -27.402143,46.01775 -28.177732,71.56054 -0.775589,25.5428 10.908121,50.67087 28.384762,68.19922 17.47665,17.52835 40.74288,27.45446 62.45899,26.83399 21.71612,-0.62046 41.88153,-11.78911 59.77148,-29.0586 17.88994,-17.26948 33.50472,-40.63885 32.36719,-67.16406 -1.13754,-26.52521 -19.02731,-56.20223 -33.34961,-76.36719 -14.32229,-20.16497 -25.0755,-30.81733 -34.17578,-31.74804 -0.56877,-0.0582 -1.1314,-0.0777 -1.6875,-0.0645 z m -25.48633,57.41016 a 30,30 0 0 1 30,30 30,30 0 0 1 -30,30 30,30 0 0 1 -30,-30 30,30 0 0 1 30,-30 z" /><path
       style="fill:#424242;fill-opacity:1;fill-rule:evenodd"
       d="m 191.9935,103.52999 c -2.12053,-0.18281 -4.75876,3.20438 -3.95735,5.08084 0.80141,1.87647 5.0423,2.24206 6.36147,0.5484 1.31917,-1.69366 -0.28358,-5.44644 -2.40412,-5.62924 z"
       id="path3" /><path
       style="fill:#424242;fill-opacity:1;fill-rule:evenodd"
       d="m 144.99144,103.29863 c -2.10226,-0.20109 -4.33686,3.53027 -3.3519,5.59712 0.98495,2.06685 5.18928,2.469 6.30663,0.60324 1.11735,-1.86576 -0.85247,-5.99928 -2.95473,-6.20036 z"
       id="path4" /><path
       style="fill:#eed5c9;fill-opacity:1;fill-rule:evenodd"
       d="m 122.93728,89.702875 c -0.18851,-2.640534 0.70594,-6.406695 2.69648,-8.721316 1.99055,-2.31462 5.07714,-3.177684 8.12694,-2.030424 3.0498,1.147259 6.06257,4.304749 7.42885,6.924782 1.36628,2.620033 1.08603,4.70251 -1.77525,6.195839 -2.86129,1.493328 -8.30327,2.397368 -11.66017,2.091947 -3.35691,-0.305422 -4.62834,-1.820293 -4.81685,-4.460828 z"
       id="path5" /><path
       style="fill:#eed5c9;fill-opacity:1;fill-rule:evenodd"
       d="m 122.93728,89.702875 c -0.18851,-2.640534 0.70594,-6.406695 2.69648,-8.721316 1.99055,-2.31462 5.07714,-3.177684 8.12694,-2.030424 3.0498,1.147259 6.06257,4.304749 7.42885,6.924782 1.36628,2.620033 1.08603,4.70251 -1.77525,6.195839 -2.86129,1.493328 -8.30327,2.397368 -11.66017,2.091947 -3.35691,-0.305422 -4.62834,-1.820293 -4.81685,-4.460828 z"
       id="path6"
       transform="matrix(-1.0878267,0,0,-1.0878267,348.20564,182.2259)" /></g><g
     id="g19"
     style="display:inline"
     transform="translate(117.3999,59.035242)"><g
       id="g14"
       style="display:inline"><path
         id="path13"
         style="fill:#c7bdb4;fill-rule:evenodd;stroke-width:0.950022"
         d="M 167.91016,57.611328 A 143.22577,143.536 0 0 0 24.685547,201.14844 143.22577,143.536 0 0 0 167.91016,344.68359 143.22577,143.536 0 0 0 311.13672,201.14844 143.22577,143.536 0 0 0 167.91016,57.611328 Z M 164.96289,170.0625 a 30,30 0 0 1 30,30 30,30 0 0 1 -30,30 30,30 0 0 1 -30,-30 30,30 0 0 1 30,-30 z" /></g><path
       id="path14"
       style="fill:#eedccc;fill-opacity:1;fill-rule:evenodd"
       d="m 190.44922,112.65234 c -8.34153,0.1982 -15.28924,7.91301 -21.73633,7.76758 -6.87691,-0.15512 -13.18357,-9.2543 -23.88672,-6.7207 -10.70316,2.53359 -25.80129,16.69977 -39.96875,36.76172 -14.167462,20.06195 -27.402143,46.01775 -28.177732,71.56054 -0.775589,25.5428 10.908121,50.67087 28.384762,68.19922 17.47665,17.52835 40.74288,27.45446 62.45899,26.83399 21.71612,-0.62046 41.88153,-11.78911 59.77148,-29.0586 17.88994,-17.26948 33.50472,-40.63885 32.36719,-67.16406 -1.13754,-26.52521 -19.02731,-56.20223 -33.34961,-76.36719 -14.32229,-20.16497 -25.0755,-30.81733 -34.17578,-31.74804 -0.56877,-0.0582 -1.1314,-0.0777 -1.6875,-0.0645 z m -25.48633,57.41016 a 30,30 0 0 1 30,30 30,30 0 0 1 -30,30 30,30 0 0 1 -30,-30 30,30 0 0 1 30,-30 z" /><path
       style="fill:#424242;fill-opacity:1;fill-rule:evenodd"
       d="m 191.9935,103.52999 c -2.12053,-0.18281 -4.75876,3.20438 -3.95735,5.08084 0.80141,1.87647 5.0423,2.24206 6.36147,0.5484 1.31917,-1.69366 -0.28358,-5.44644 -2.40412,-5.62924 z"
       id="path15" /><path
       style="fill:#424242;fill-opacity:1;fill-rule:evenodd"
       d="m 144.99144,103.29863 c -2.10226,-0.20109 -4.33686,3.53027 -3.3519,5.59712 0.98495,2.06685 5.18928,2.469 6.30663,0.60324 1.11735,-1.86576 -0.85247,-5.99928 -2.95473,-6.20036 z"
       id="path16" /><path
       style="fill:#eed5c9;fill-opacity:1;fill-rule:evenodd"
       d="m 122.93728,89.702875 c -0.18851,-2.640534 0.70594,-6.406695 2.69648,-8.721316 1.99055,-2.31462 5.07714,-3.177684 8.12694,-2.030424 3.0498,1.147259 6.06257,4.304749 7.42885,6.924782 1.36628,2.620033 1.08603,4.70251 -1.77525,6.195839 -2.86129,1.493328 -8.30327,2.397368 -11.66017,2.091947 -3.35691,-0.305422 -4.62834,-1.820293 -4.81685,-4.460828 z"
       id="path17" /><path
       style="fill:#eed5c9;fill-opacity:1;fill-rule:evenodd"
       d="m 122.93728,89.702875 c -0.18851,-2.640534 0.70594,-6.406695 2.69648,-8.721316 1.99055,-2.31462 5.07714,-3.177684 8.12694,-2.030424 3.0498,1.147259 6.06257,4.304749 7.42885,6.924782 1.36628,2.620033 1.08603,4.70251 -1.77525,6.195839 -2.86129,1.493328 -8.30327,2.397368 -11.66017,2.091947 -3.35691,-0.305422 -4.62834,-1.820293 -4.81685,-4.460828 z"
       id="path18"
       transform="matrix(-1.0878267,0,0,-1.0878267,348.20564,182.2259)" /></g></svg>
